<svg xmlns="http://www.w3.org/2000/svg" version="1.1" xmlns:xlink="http://www.w3.org/1999/xlink" xmlns:svgjs="http://svgjs.com/svgjs" width="1440" height="800" preserveAspectRatio="none" viewBox="0 0 1240 800"><g mask="url(&quot;#SvgjsMask1008&quot;)" fill="none"><rect width="1440" height="800" x="0" y="0" fill="rgba(192, 171, 209, 1)"></rect><path d="M1654.99 409.38C1458.29 406.47 1219.9 185.09 905.6 169.38 591.3 153.67 653.22-135.32 530.9-157.12" stroke="rgba(179, 157, 197, 1)" stroke-width="2"></path><path d="M1696.1 324.19C1522.78 328.82 1388.37 584.5 1051.53 580.19 714.7 575.88 629.35-15.36 406.97-68" stroke="rgba(179, 157, 197, 1)" stroke-width="2"></path><path d="M1716.3 342.21C1581.7 346.35 1485.07 556.48 1219.41 550.21 953.76 543.94 905.54 22.83 722.53-34.93" stroke="rgba(179, 157, 197, 1)" stroke-width="2"></path><path d="M1625.02 652.11C1426.41 647.52 1221.56 411.42 881.32 372.11 541.08 332.8 656.26-82.43 509.47-143.16" stroke="rgba(179, 157, 197, 1)" stroke-width="2"></path><path d="M1570.74 296.68C1391.75 300.6 1163.34 548.55 898.91 544.68 634.47 540.81 707.23 55.79 562.99-25.05" stroke="rgba(179, 157, 197, 1)" stroke-width="2"></path></g><defs><mask id="SvgjsMask1008"><rect width="1440" height="800" fill="#ffffff"></rect></mask></defs></svg>