<svg xmlns="http://www.w3.org/2000/svg" version="1.1" xmlns:xlink="http://www.w3.org/1999/xlink" xmlns:svgjs="http://svgjs.com/svgjs" width="1440" height="800" preserveAspectRatio="none" viewBox="0 0 1440 800"><g mask="url(&quot;#SvgjsMask1257&quot;)" fill="none"><rect width="1440" height="800" x="0" y="0" fill="rgba(252, 252, 252, 1)"></rect><path d="M611.18 883.43C777.04 863.68 877.41 492.96 1152.73 492.13 1428.05 491.3 1550.66 681.32 1694.28 684.13" stroke="rgba(192, 171, 209, 1)" stroke-width="2"></path><path d="M484.64 866.75C599.46 855.69 673.5 613.66 869.97 612.91 1066.43 612.16 1062.63 712.91 1255.29 712.91 1447.96 712.91 1541.1 613.72 1640.62 612.91" stroke="rgba(192, 171, 209, 1)" stroke-width="2"></path><path d="M653.76 915.87C804.7 897.26 856.72 579.96 1144.23 555.98 1431.73 532 1497.46 314.9 1634.69 307.98" stroke="rgba(192, 171, 209, 1)" stroke-width="2"></path><path d="M849.36 899.94C975.66 814.03 857.33 402.12 1127.85 356.09 1398.36 310.06 1539.39 189.91 1684.82 188.09" stroke="rgba(192, 171, 209, 1)" stroke-width="2"></path><path d="M709.73 854.08C854.11 810.55 837.88 457.07 1106.04 399.36 1374.21 341.65 1378.63 112.18 1502.36 95.36" stroke="rgba(192, 171, 209, 1)" stroke-width="2"></path></g><defs><mask id="SvgjsMask1257"><rect width="1440" height="800" fill="#ffffff"></rect></mask></defs></svg>