<svg xmlns="http://www.w3.org/2000/svg" version="1.1" xmlns:xlink="http://www.w3.org/1999/xlink" xmlns:svgjs="http://svgjs.com/svgjs" width="1440" height="800" preserveAspectRatio="none" viewBox="0 0 1440 800"><g mask="url(&quot;#SvgjsMask1033&quot;)" fill="none"><rect width="1440" height="800" x="0" y="0" fill="rgba(192, 171, 209, 1)"></rect><path d="M751.13-74.93C584.32-25.13 586.83 401.05 292.14 448.74-2.55 496.43-37.56 681.64-166.85 688.74" stroke="rgba(252, 252, 252, 1)" stroke-width="2"></path><path d="M539.77-143.26C423.24-129.22 397.77 99.66 159.88 132.63-78.01 165.6-98.61 425.51-220.01 444.63" stroke="rgba(252, 252, 252, 1)" stroke-width="2"></path><path d="M993.66-62.87C880.94-42.87 943.57 218.99 648.1 237.59 352.63 256.19 142.6 504.75-43.02 509.59" stroke="rgba(252, 252, 252, 1)" stroke-width="2"></path><path d="M901.19-34.59C748.02 70.56 829.81 623.82 564.36 627.84 298.91 631.86 78.67 300.99-109.31 291.84" stroke="rgba(252, 252, 252, 1)" stroke-width="2"></path><path d="M754.55-53.57C591.38 74.64 706.08 681.25 408.87 701.11 111.66 720.97-104.63 534.31-282.5 533.11" stroke="rgba(252, 252, 252, 1)" stroke-width="2"></path></g><defs><mask id="SvgjsMask1033"><rect width="1440" height="800" fill="#ffffff"></rect></mask></defs></svg>