<svg xmlns="http://www.w3.org/2000/svg" version="1.1" xmlns:xlink="http://www.w3.org/1999/xlink" xmlns:svgjs="http://svgjs.com/svgjs" width="1440" height="800" preserveAspectRatio="none" viewBox="0 0 1440 800"><g mask="url(&quot;#SvgjsMask1025&quot;)" fill="none"><rect width="1440" height="800" x="0" y="0" fill="rgba(252, 252, 252, 1)"></rect><path d="M-247.91 63.05C-133.89 67.07-106.73 193.93 169.72 247.05 446.18 300.17 423.41 751.81 587.36 818.24" stroke="rgba(192, 171, 209, 1)" stroke-width="2"></path><path d="M-249.44 453.39C-129.47 453.94-14.76 553.39 219.91 553.39 454.59 553.39 439.37 448.02 689.27 453.39 939.16 458.76 1000.53 864.29 1158.62 897.55" stroke="rgba(192, 171, 209, 1)" stroke-width="2"></path><path d="M-139.66 480.41C-2.21 478.65 101.61 311.78 386.39 320.41 671.18 329.04 721.55 861.84 912.45 918.47" stroke="rgba(192, 171, 209, 1)" stroke-width="2"></path><path d="M-67.09 101.93C135.83 110.91 330.77 415.79 665.19 453.93 999.61 492.07 897.09 838.91 1031.33 880.49" stroke="rgba(192, 171, 209, 1)" stroke-width="2"></path><path d="M-47.85 538.31C56.29 539.05 154.34 638.31 356.53 638.31 558.72 638.31 549.39 535.52 760.91 538.31 972.43 541.1 1033.78 864.13 1165.29 887.08" stroke="rgba(192, 171, 209, 1)" stroke-width="2"></path></g><defs><mask id="SvgjsMask1025"><rect width="1440" height="800" fill="#ffffff"></rect></mask></defs></svg>